<svg xmlns="http://www.w3.org/2000/svg" viewBox="0 0 49.14 56.33"><g id="Layer_2" data-name="Layer 2"><g id="Layer_1-2" data-name="Layer 1"><path d="M16.7,2.39A13.13,13.13,0,0,0,6.87,7.18,4.65,4.65,0,0,0,5.68,9.61,2.41,2.41,0,0,0,6,11.17a1.29,1.29,0,0,0,.71.49,7.59,7.59,0,0,0,1.43.21c1.13.06,2.27.05,3.39.15a11.1,11.1,0,0,1,2.29.4,4,4,0,0,1,3.08,4.17,4.72,4.72,0,0,1-2.95,4.47A9.57,9.57,0,0,1,8.85,22a9.58,9.58,0,0,1-3-.64A6.33,6.33,0,0,1,1.67,16.1,12.84,12.84,0,0,1,4.25,6,15,15,0,0,1,10.9,1.33,20.4,20.4,0,0,1,19.55.05,20.29,20.29,0,0,1,30.33,3.73a16.9,16.9,0,0,1,6.5,9.6A21.81,21.81,0,0,1,37.64,19a19.62,19.62,0,0,1-.77,5.1,28.77,28.77,0,0,1-5.31,10.29,52.18,52.18,0,0,1-8.83,8.68,106.35,106.35,0,0,1-22,13.16c-.09,0-.18.11-.27.1s-.37-.06-.45-.17a.48.48,0,0,1,0-.45A7.22,7.22,0,0,1,.91,55c2.25-1.74,4.52-3.44,6.75-5.21a88.36,88.36,0,0,0,11.07-10.2A37.24,37.24,0,0,0,26.9,25.35a27.73,27.73,0,0,0,1-9.84,21.75,21.75,0,0,0-1.19-6.29,9.81,9.81,0,0,0-5.06-5.77A11.51,11.51,0,0,0,16.7,2.39Z"/><path d="M49.14,25.24a4.08,4.08,0,1,1-4.08-4.1A4.09,4.09,0,0,1,49.14,25.24Z"/><path d="M40.48,10.39a4.09,4.09,0,1,1,4.1,4.08A4.09,4.09,0,0,1,40.48,10.39Z"/></g></g></svg>