<svg xmlns="http://www.w3.org/2000/svg" viewBox="0 0 41.01 42.73"><g id="Layer_2" data-name="Layer 2"><g id="Layer_1-2" data-name="Layer 1"><path d="M31.14,25.85c-4.76-11.11-4.76-11.11-10.13-8L17.8,11.18c-6,2.73-6.07,8.37-7.45,13.23C5.59,23,4.06,16.54,6.87,8.59l1.74,1.9L22.6,0l4.17,12.63,1.41-.19,1-4.75c4,.51,6.3,2.79,6.6,6.58C36.09,18.59,36.89,23.38,31.14,25.85Z"/><path d="M21.56,42.73c-7-.31-13.31-1.1-18.1-5.9A13.1,13.1,0,0,1,0,31a4.74,4.74,0,0,1,2.15-4.12c1.13-.46,3.43.48,4.45,1.54,2.26,2.37,3.77,5.48,6.08,7.8,4.57,4.61,8.14,4.91,13.16,1a43.16,43.16,0,0,0,7.53-7.86c1.93-2.55,4.41-3.84,6.64-1.92,1.16,1,1.27,4.75.32,6.38C36.09,41.11,28.59,42.18,21.56,42.73Z"/><path d="M16.62,15.86l4.39,9,4-6.25,3,7.73c-5.13,3.62-11.75,4.48-13.2,1.05-1.35-3.22,0-7.57.16-11.43Z"/><path d="M11.64,29.91c5.6,3.71,11.23,2.55,17.34-.09C22.33,39.08,18.14,39.08,11.64,29.91Z"/></g></g></svg>