<svg xmlns="http://www.w3.org/2000/svg" viewBox="0 0 42.47 42.47"><g id="Layer_2" data-name="Layer 2"><g id="Layer_1-2" data-name="Layer 1"><path d="M33.76,9.29h5A21.4,21.4,0,0,0,30.22,2,27.8,27.8,0,0,1,33.76,9.29Z"/><path d="M9.48,33.24H3.72a21.41,21.41,0,0,0,9.56,7.68A28.31,28.31,0,0,1,9.48,33.24Z"/><path d="M33.76,33.24a28.29,28.29,0,0,1-3.48,7.19,21.34,21.34,0,0,0,8.47-7.19Z"/><path d="M40.56,12.47h-6.1a11.55,11.55,0,0,1-.05,4l-2.82.12a12.42,12.42,0,0,0-.11-4.12H28.53V9.29h2A35.41,35.41,0,0,0,25.29.4,20.91,20.91,0,0,0,21.24,0a22.26,22.26,0,0,0-3.19.26,35.21,35.21,0,0,0-5.38,9h2v3.18h-3a11.91,11.91,0,0,0-.11,4.12l-2.83-.12a11.75,11.75,0,0,1,0-4H1.91a21.05,21.05,0,0,0,0,17.59H8.78a11.75,11.75,0,0,1,0-4l2.83-.12a11.91,11.91,0,0,0,.11,4.12h3v3.18h-2a35.34,35.34,0,0,0,5.33,9,21.57,21.57,0,0,0,3.24.27,21.35,21.35,0,0,0,4.1-.4,35.34,35.34,0,0,0,5.23-8.83h-2V30.06h2.95a12.42,12.42,0,0,0,.11-4.12l2.82.12a11.55,11.55,0,0,1,.05,4h6.07a21.05,21.05,0,0,0,0-17.59Zm-4.8,8.29v1.89h-.93a12.26,12.26,0,0,0-6.18,1.6c-7.21,4.18-6.41,12.4-6.41,12.4H21.18c.47-13.18-12.65-14-12.65-14v-2.3s13.12-.82,12.65-14h1.06s-.84,8.67,7,12.73a12,12,0,0,0,5.54,1.27h1Z"/><path d="M13.33,1.54A21.26,21.26,0,0,0,3.68,9.29h5.8A28.35,28.35,0,0,1,13.33,1.54Z"/></g></g></svg>