<svg xmlns="http://www.w3.org/2000/svg" viewBox="0 0 44.47 41.76"><g id="Layer_2" data-name="Layer 2"><g id="Layer_1-2" data-name="Layer 1"><polygon points="16.57 0 27.04 0 27.04 4.24 22.45 15.65 21.63 15.77 16.57 4.59 16.57 0"/><polygon points="29.77 3.88 32.71 8.23 25.88 15.65 29.77 3.88"/><polygon points="30 15.65 41.65 15.65 38.94 6.94 30 15.65"/><polygon points="25.65 17.65 37.09 17.65 42.23 22.88 26.41 22.88 25.65 17.65"/><polygon points="14.12 3.88 11.18 8.23 18 15.65 14.12 3.88"/><polygon points="13.88 15.65 2.23 15.65 4.94 6.94 13.88 15.65"/><polygon points="18.23 17.65 6.79 17.65 1.65 22.88 17.47 22.88 18.23 17.65"/><polygon points="16.57 41.77 27.04 41.77 27.04 37.53 22.45 26.12 21.63 26 16.57 37.18 16.57 41.77"/><polygon points="30 26.12 44.47 26.12 41.11 36.12 30 26.12"/><polygon points="14.12 35.77 8.12 35.77 18 26.12 14.12 35.77"/><polygon points="14.47 26.12 0 26.12 3.36 36.12 14.47 26.12"/><polygon points="29 35.77 35 35.77 25.12 26.12 29 35.77"/></g></g></svg>