<svg xmlns="http://www.w3.org/2000/svg" viewBox="0 0 37.98 43.13"><g id="Layer_2" data-name="Layer 2"><g id="Layer_1-2" data-name="Layer 1"><path d="M5.21,38A17.64,17.64,0,0,1,.71,20.39C3,11.82,9.36,7.87,18.08,6.57V0l7.25,6.69,8-3.09L30.59,10c4.35,4.12,8,8.74,7.31,16.67L26.06,19.57,14.11,33.07l-1.69-.6L10,24l-1.46-.18Z"/><path d="M30.09,43.13c-12.5-6.27-12.5-6.27-18.59-.2l-1.3-.46c.68-1.59,1-3.48,2.1-4.71,3.14-3.54,7.26-3.88,11.36-2.12C26.68,36.94,29.67,38.68,30.09,43.13Z"/><path d="M24.51,26.32l10.58,2.49c-1.07,3.52-3.76,3.76-6.59,3.24S23.94,29.81,24.51,26.32Z"/></g></g></svg>