<svg xmlns="http://www.w3.org/2000/svg" viewBox="0 0 42.85 42.01"><defs><style>.cls-1{fill:#fff;}</style></defs><g id="Layer_2" data-name="Layer 2"><g id="Layer_1-2" data-name="Layer 1"><path d="M21.2,4.11C29-1.82,35.14-1.31,40.52,5.49c3.9,4.91,2.69,18.28-2,22.25-2.8,2.38-5.56,4.79-8.35,7.17s-5.32,4.54-8.33,7.1c-3.76-3.07-9.53-4.27-8.54-11.21.13-.94-1.13-2.27-2-3.12C9.23,25.74,7,24,4.83,22.16c-6.62-5.55-6.42-12,.52-17.23C13.81-1.4,15.48-1.5,21.2,4.11ZM19.77,32.89l2,1C25.13,31,28.32,27.74,32,25.23c4.24-2.9,5.9-6.63,5-11.45-.41-2-1.22-4.95-2.69-5.62-1.83-.83-4.84-.36-6.76.65-3.1,1.63-5.73,4.15-8.92,6.57l-.41-6.1H7.94c-1.57,4.46.09,7.11,3.41,9.65C15.79,22.33,21.68,25.11,19.77,32.89Z"/><path class="cls-1" d="M19.77,32.89c1.91-7.78-4-10.56-8.42-14-3.32-2.54-5-5.19-3.41-9.65H18.17l.41,6.1C21.77,13,24.4,10.44,27.5,8.81c1.92-1,4.93-1.48,6.76-.65,1.47.67,2.28,3.57,2.69,5.62.95,4.82-.71,8.55-5,11.45-3.68,2.51-6.87,5.75-10.27,8.66Z"/></g></g></svg>