<svg xmlns="http://www.w3.org/2000/svg" viewBox="0 0 44.91 45.97"><g id="Layer_2" data-name="Layer 2"><g id="Layer_1-2" data-name="Layer 1"><path d="M43.68,30.35l-3.89-.17,5.12-19.42L25.15,0V10.41L11.38,4.94l2.47,19.94.34.28c-.2-.07-.41-.12-.61-.17a2.32,2.32,0,0,0-4.47,0,9.47,9.47,0,0,0-3,1.27A2.33,2.33,0,0,0,3,29.55a9.49,9.49,0,0,0-1,2.78A2.33,2.33,0,0,0,2.2,37a9.49,9.49,0,0,0,1.12,2.39,2.34,2.34,0,0,0,3.31,3.3l.09-.12a9.3,9.3,0,0,0,2.3.89,1.49,1.49,0,0,0,0,.21,2.34,2.34,0,0,0,4.68,0,1.81,1.81,0,0,0,0-.23,9.6,9.6,0,0,0,2.27-.9l.13.15a2.34,2.34,0,1,0,3.31-3.31l-.06,0A9.33,9.33,0,0,0,20.38,37a2.33,2.33,0,0,0,.23-4.65,9.56,9.56,0,0,0-1.2-3l-.26-12,10.41,4.24L29,16.94l5.82,2.3-.17,8.47L29,26.12l.35,4.41-4.76,3L28.68,36l-.53,5.82,4.41-.7L35.91,45l2.3-5.29L44,39.53,40,35.29ZM11.29,38.29a4.09,4.09,0,1,1,4.09-4.08A4.08,4.08,0,0,1,11.29,38.29Z"/></g></g></svg>