<svg xmlns="http://www.w3.org/2000/svg" viewBox="0 0 42.3 43.43"><g id="Layer_2" data-name="Layer 2"><g id="Layer_1-2" data-name="Layer 1"><path d="M42.22,17.67c-.35-6.71-4.41-7.33-4.41-7.33s-1.94-.62-5,4.24c-2.8,4.39-3.78,14.21-4,16a1.07,1.07,0,0,1-.21.57c-.43.58-1.49,1.88-2.72,2s-2.06-1.4-2.3-2a1.06,1.06,0,0,1-.08-.43v-7H19.27S17.5,23.47,17.71,22a2.05,2.05,0,0,1,1.77-1.68h4V17H20.81s-1.63-.31-1.44-1.81A1.92,1.92,0,0,1,21,13.52h2.52V13.3a37.33,37.33,0,0,0-.62-8C22-.6,17.87,0,17.87,0S11.78.37,9.4,10.25s-3.62,8.3-3.62,8.3H1c-2.12.09-.27,2.38-.27,2.38,3.54,4.69,8,.55,8.58,0l.12-.14a31.56,31.56,0,0,0,3.92-8c.08-.27.17-.51.25-.74a1.14,1.14,0,0,1,2.22.39c.44,4.06-3,22.37,3,28.32,5.55,5.56,9.81.75,10.35.08a.78.78,0,0,0,.1-.15A37,37,0,0,1,32.34,36a6.51,6.51,0,0,1,1.08-1.12,1.15,1.15,0,0,1,1.57.24,3.47,3.47,0,0,0,2.73,1c2.66.08,3.83-4.54,4-5.07,0,0,0-.06,0-.1A81.69,81.69,0,0,0,42.22,17.67ZM37.63,32.49c-1.7,0-3.09-4.23-3.09-9.44s1.39-9.44,3.09-9.44,3.09,4.22,3.09,9.44S39.34,32.49,37.63,32.49Z"/><path d="M25.57,17s1.83-.31,1.83-1.67-2-1.81-2-1.81H23.52V17Z"/><path d="M24.44,23.78s2-.31,2-1.68-2.14-1.81-2.14-1.81h-.77v3.49Z"/></g></g></svg>