<svg xmlns="http://www.w3.org/2000/svg" viewBox="0 0 37.67 40.38"><g id="Layer_2" data-name="Layer 2"><g id="Layer_1-2" data-name="Layer 1"><path d="M22.92,18.69,37.67,29,37,30.42,29.51,28C28.19,38.18,25.87,40.45,17,40.38,8.25,40.31.84,34.17.05,26.36c-.49-4.82,2.87-7.89,7.41-6.28a18.84,18.84,0,0,1,7,4.45c3.54,3.67,2.43,6.54-2.65,8,4.92,4.07,10.08,2.46,11-3.66C23.3,25.81,22.92,22.62,22.92,18.69Z"/><path d="M3.3,10.28l7.29,2.19c2-10.64,7.7-15,15.53-11,3.27,1.68,5.75,5.66,7.58,9.13,1.35,2.57.29,5.76-3.13,6.78a6.21,6.21,0,0,1-7.93-3.5c-1.55-3.16.31-5,2.92-6.38.42-.22.81-.51,1.07-2-2.08.2-4.76-.36-6.13.73-5.15,4.08-2.85,10-2.68,16L2.61,11.59Z"/></g></g></svg>