<svg xmlns="http://www.w3.org/2000/svg" viewBox="0 0 41.83 36.36"><defs><style>.cls-1{fill:#fff;}</style></defs><g id="Layer_2" data-name="Layer 2"><g id="Layer_1-2" data-name="Layer 1"><path d="M9.42,0c1.67,2.5,4,4.8,4.86,7.55,1.25,4,4.07,3.14,6.73,3.18s5.5.66,6.64-3.36c.75-2.64,3-4.87,4.57-7.29l1.44.26a14.87,14.87,0,0,1,1.07,3.79q.15,12,0,23.94a15,15,0,0,1-.93,5.38c-1.08,2.66-2.68,4-5.7,1.71-6.21-4.71-8.18-4.65-14.52.09-3.08,2.31-4.76.7-5.55-2a30,30,0,0,1-.95-7.87c-.12-6.65-.09-13.31,0-20A33.68,33.68,0,0,1,7.88.49ZM17,14.71c.45,3.74.64,7.06,1.34,10.27a4.26,4.26,0,0,0,2.84,2.45c.6.14,2.17-1.39,2.35-2.35.65-3.33.89-6.74,1.32-10.37Zm-6.4,7.64L14.46,29,16,28.33l-.68-8.06ZM25.8,28.28l1.73.68,3.52-6.64-4.52-2.09Z"/><path d="M3.91,20.75,5.07,31.3C-1.29,28-1.66,24.86,3.91,20.75Z"/><path d="M36.78,31.35c.38-3.68.73-7,1.11-10.55C43.47,24.74,43.15,27.8,36.78,31.35Z"/><path class="cls-1" d="M17,14.71h7.85c-.43,3.63-.67,7-1.32,10.37-.18,1-1.75,2.49-2.35,2.35A4.26,4.26,0,0,1,18.31,25C17.61,21.77,17.42,18.45,17,14.71Z"/><path class="cls-1" d="M10.57,22.35l4.77-2.08L16,28.33,14.46,29Z"/><path class="cls-1" d="M25.8,28.28l.73-8,4.52,2.09L27.53,29Z"/></g></g></svg>