<svg xmlns="http://www.w3.org/2000/svg" viewBox="0 0 34.02 38.39"><g id="Layer_2" data-name="Layer 2"><g id="Layer_1-2" data-name="Layer 1"><path d="M34,18.31C34,10.88,24.21,8,27.4,0c-6.72,1.88-7.68,4.05-4.73,9.68,1.87,3.59.76,5.64-3.29,5.91H14.63c-4-.27-5.16-2.32-3.28-5.91,3-5.63,2-7.8-4.74-9.68C9.8,8,.06,10.88,0,18.31c4.79.91,7.76,2.59,5.76,8.41-.57,1.67,1.69,4.92,3.45,6.64,2.13,2.1,5.1,3.35,7.79,5h0c2.69-1.67,5.66-2.92,7.79-5,1.75-1.72,4-5,3.44-6.64C26.25,20.9,29.23,19.22,34,18.31Zm-19.84,7h-2L9.94,23.05V20.11l4.24,3.53Zm9.7-2.23-2.24,2.23h-2V23.64l4.24-3.53Z"/></g></g></svg>