<svg xmlns="http://www.w3.org/2000/svg" viewBox="0 0 31.47 32.65"><defs><style>.cls-1{fill:#231f20;}</style></defs><g id="Layer_2" data-name="Layer 2"><g id="remix-rumble"><polygon class="cls-1" points="5.53 20.06 5.53 0 0 0 0 32.65 2.94 32.65 5.53 32.65 7.88 32.65 7.88 20.06 5.53 20.06"/><rect class="cls-1" x="14.01" width="3.63" height="32.59"/><rect class="cls-1" x="11.21" y="20.03" width="9.35" height="12.62"/><rect class="cls-1" x="6.88" width="5.92" height="18.62"/><polygon class="cls-1" points="4.98 20.04 4.98 0 0 0 0 32.65 2.65 32.65 3.76 32.65 4.98 32.65 7.09 32.65 8.47 32.65 8.47 20.04 4.98 20.04"/><rect class="cls-1" x="19.08" width="5.92" height="18.62"/><polygon class="cls-1" points="26.49 20.04 26.49 0 31.47 0 31.47 32.65 28.82 32.65 27.71 32.65 26.49 32.65 24.38 32.65 23 32.65 23 20.04 26.49 20.04"/></g></g></svg>