<svg xmlns="http://www.w3.org/2000/svg" viewBox="0 0 30.44 42.12"><defs><style>.cls-1{fill:#020202;}</style></defs><g id="Layer_2" data-name="Layer 2"><g id="Layer_1-2" data-name="Layer 1"><path class="cls-1" d="M23.78,3V19.77s-1.06,3.35-3.35,3.35h-2.3S16,23.83,16,25.21a2,2,0,0,0,1,1.85H21.9s5.29.12,6-7.06V1.89s.35-2-2.24-1.89S23.78,3,23.78,3Z"/><path class="cls-1" d="M3,2.48V16.36s.58-2.12,3.88-2.12V1.77A1.53,1.53,0,0,0,5.07.24C3.31.36,3,2.48,3,2.48Z"/><path class="cls-1" d="M9.78,8.59v5.77H13.9V7.89s-.24-2.59-2.24-1.65S9.78,8.59,9.78,8.59Z"/><path class="cls-1" d="M16.84,14.12h4.23V8s-.82-2.11-2.23-2S16.6,8.12,16.6,8.12Z"/><path class="cls-1" d="M2.72,20.83s-.12,6.94,10.12,6.7c0,0,1.06-.11.82-6.23l5.65-.24A1.6,1.6,0,0,0,20.84,19,2.56,2.56,0,0,0,19,16.59H5.66A5,5,0,0,0,2.72,20.83Z"/><path class="cls-1" d="M21,37.89H9v0A2.22,2.22,0,0,0,7,40a2.26,2.26,0,0,0,2,2v0H21A2.21,2.21,0,0,0,23.31,40,2.25,2.25,0,0,0,21,37.89Z"/><rect class="cls-1" x="12.43" y="29.11" width="6.12" height="5.84"/><path class="cls-1" d="M8.54,29.11H2.82v0a2.9,2.9,0,0,0,0,5.8H2.9c.11,0,.21,0,.32,0s.21,0,.32,0h5Z"/><path class="cls-1" d="M27.75,29.16v-.05H22.43V35H26.9c.11,0,.21,0,.32,0s.21,0,.32,0h.21v0a2.89,2.89,0,0,0,0-5.77Z"/></g></g></svg>