<svg xmlns="http://www.w3.org/2000/svg" viewBox="0 0 498.71 165.47"><defs><style>.cls-1{fill:#020202;}</style></defs><g id="Layer_2" data-name="Layer 2"><g id="remix-rumble"><path class="cls-1" d="M171.88,49.41V62.29h-6V51.18s-2.47-8.12-12.35-8.12H150V40.94s15.88,1.77,17.82-11.12V16.94s-1.06-9.53-12.17-12.18S91.41,3.53,91.41,3.53V20.65h4.94s3.89.35,3.36,5.47,0,27.53,0,27.53a4.22,4.22,0,0,1-4.24,3.53H92.29V74.47h42.53V57.88s-6.53,0-7.41-3.88V45.35h5.83s4.94.53,4.94,4.94V65.82s.35,9.18,10.58,10.59H165s11.29-1.94,11.65-11.65V49.41ZM140.21,31.15c0,4.85-5.39,5.38-5.39,5.38h-6.17V21.18l7.19.22c3.92,0,4.37,4.36,4.37,4.36Z"/><path class="cls-1" d="M188.82,9V72h12.71V45.88a1.56,1.56,0,0,1,1.59-1.59h13.59V34.06H202.59a1.3,1.3,0,0,1-1.33-1.32V8.82Z"/><polygon class="cls-1" points="204.71 8.65 204.71 18.53 217.24 18.53 217.24 8.47 204.71 8.65"/><polygon class="cls-1" points="204.35 62.29 204.35 72 217.59 72 217.59 62.12 204.35 62.29"/><path class="cls-1" d="M227.82,9.18V76.24h12.89V34.41l24,40.06s4.58,5.65,10.23,0l22.94-40.59v42h13.59V11.35a8.18,8.18,0,0,0-3.24-6.67c-2.39-1.73-5.9-2.23-9.82,3.79-7.23,11.12-27.35,48.35-27.35,48.35s-1.24,1.94-3.18,0S240,8.29,240,8.29s-2.29-5.82-9-3.53A5.77,5.77,0,0,0,227.82,9.18Z"/><polygon class="cls-1" points="323.65 10.23 323.65 80.47 338.47 80.47 338.47 0.18 323.65 10.23"/><rect class="cls-1" x="351" width="11.12" height="22.59"/><rect class="cls-1" x="362.65" y="23.47" width="11.29" height="10.59"/><rect class="cls-1" x="374.12" y="34.94" width="10.94" height="10.41"/><rect class="cls-1" x="385.94" y="23.29" width="10.94" height="10.59"/><rect class="cls-1" x="398.12" y="0.18" width="10.24" height="22.06"/><rect class="cls-1" x="386.47" y="46.94" width="10.59" height="10.06"/><rect class="cls-1" x="363.18" y="46.59" width="10.41" height="10.59"/><rect class="cls-1" x="351.18" y="58.41" width="10.76" height="22.41"/><rect class="cls-1" x="398.12" y="58.59" width="10.94" height="21.88"/><path class="cls-1" d="M78,151.76l-2.47,2.3s-6.53,1.23-7.77-9.53a106.13,106.13,0,0,0-3.88-18.88s-2.64-6.89-10.23-7.24v-1.59s13.76-4.06,14.64-15.53-2.47-13.41-2.47-13.41a24.19,24.19,0,0,0-13.94-7.94L39,87.53,37.76,87l-.17-6.88-2.12-.36L36,89.65l-4.59,2.64L13.94,79.76,0,92.47s5.29-3.35,8.82-.71,9.89,6.89,9.89,6.89l-.53,12.53s-1.24,2.82-3.71,2.11-9,7.42-9,7.42L4.24,129s5.11-3.53,8.64-4.06H18v16.77s1.24,5.11-17.29,21.35l.35,1.06s5.12-3.18,6.35-3.18,15.88-1.06,21.71,2.12,8.12,2.29,8.12,2.29l10.41-13.94L46.76,150l-3.35,3.88-5.65-1.76V126.18s3.53-2.3,8.83,0,6.7,13.94,6.7,13.94-1.58,21,11.47,24.35c0,0,3.71.71,5.65.88l8.83-11.29Zm-42-.35c-.88.35-4.76-.53-4.76-.53a92.23,92.23,0,0,0-12.71-1.23c12.71-8.65,12.71-16.77,12.71-16.77V95.47L36,92.29S36.88,151.06,36,151.41Zm7.94-30.35L39,123.53l-.88-.53V90.71l4.41-2.47s10.76,1.05,12.53,13.23S43.94,121.06,43.94,121.06Z"/><path class="cls-1" d="M76.59,87.18v46.23s3.17,25.59,43.23,24.53,40.24-26.12,40.24-26.12V87.18H139.24v39.17s-2.48,13.41-18.89,11.83S102.88,126,102.88,126V87.18Z"/><path class="cls-1" d="M174.18,83.12s9.17.53,9.35,4.06-18.71,66.53-18.71,66.53-2.64,8.47-9.17,8.29l-.36,1.76h23.47V162s-7.41,1.24-8.29-6.35l15.71-59.47,10.41,67.41a1.34,1.34,0,0,0,1.94,0c1-1,49.41-68.83,49.41-68.83l-17.47,63.36a15.23,15.23,0,0,1-10.59,4.41v1.23h34.24v-1s-9,.53-10.59-6l18.71-67.24s1.41-6.35,8.82-6.18V81.71H250.24l-44,61.05s-1.58,3-2.11-4.58l-7.94-56.3H173.82Z"/><path class="cls-1" d="M274.59,91.59v62.12h1.59V108.18s.53-3,5.82-2.65,50.12,0,50.12,0,3.88,1.76,0,3H288.88s-8,1.23-8,8v13.68s1,7.41,10.86,7.41h40.76s1.41,0,1.41,1.23a1.34,1.34,0,0,1-1.06,1.41H280.41v13.59h48s7.59-1.06,8.65-8.64a38.16,38.16,0,0,0,0-12.36s.53-5.29-8.56-8.56H284.29s-2.29-2,0-2.91,43.59,0,43.59,0,9.36-1.41,9.36-9.35v-12s.88-8.12-8.12-8.12S274.59,91.59,274.59,91.59Z"/><path class="cls-1" d="M348.18,91.76c.7,0,5.64,2.83,5.64,2.83v55.59L349,155h49.15V140.65l-25.77,11.11h-4.41v-57l5.65-3.35Z"/><path class="cls-1" d="M490.24,127.94s-24.89,24.18-64.06,26.3c0,0-30.36,1.41-8.47-15.89s68.47-27.53,68.47-27.53a7.81,7.81,0,0,0-2.65-8.47c-4.41-3.53-37.94-3.17-37.94-3.17s-9.35-1.77,11.12-4.59,33.7-.71,33.7-.71-4.23,2.65-5.12,2.65,12.36,1.41,12.36,1.41l1.06-2.12-2.3-11.11s-.17-2.65-2.29-3.18-46.94,0-58.77,10.41a4.65,4.65,0,0,0-1.76,5.82c1.41,4.06,3.17,5.3,3.17,5.3s-.88,1.76,13.24,1.41l19.94.18s-38.65,8.82-56.12,27.35-3.53,32.82,16.59,31.94,40.06-14.82,40.06-14.82,16.77-11.47,19.59-17.12Z"/></g></g></svg>