<svg xmlns="http://www.w3.org/2000/svg" viewBox="0 0 29.09 80.42"><g id="Layer_2" data-name="Layer 2"><g id="Layer_1-2" data-name="Layer 1"><path d="M17.55,0h.58s0,.06.07.06a2,2,0,0,1,1,.74,16.56,16.56,0,0,1,2.9,5.35,21.58,21.58,0,0,1,1,4.91,25.27,25.27,0,0,1-.42,7.71,26.85,26.85,0,0,1-1.33,4.37,22.81,22.81,0,0,1-4.93,7.58c-.41.42-.65.79-.41,1.37l0,.12.69,3.39c.17.82.35,1.65.52,2.48,0,.14.09.18.21.16l.22,0a8.94,8.94,0,0,1,5.87,1.25,11.51,11.51,0,0,1,5.31,8.21c.06.32.12.63.19.94v2.81a.56.56,0,0,0-.08.2,11.12,11.12,0,0,1-.75,2.95,10.58,10.58,0,0,1-3.65,4.78,12.16,12.16,0,0,1-2.47,1.37c-.19.08-.27.17-.22.38s.07.4.11.59c.34,1.57.67,3.14,1,4.71A31.41,31.41,0,0,1,23.79,71a9.19,9.19,0,0,1-.65,4.34,8.44,8.44,0,0,1-6.48,4.91,10.18,10.18,0,0,1-3.35,0A9.28,9.28,0,0,1,8.8,78.39,6.48,6.48,0,0,1,6.25,73.7a5.3,5.3,0,0,1,.19-1.94,6.13,6.13,0,0,1,1.93-3.29,4.39,4.39,0,0,1,4.93-.79,5.23,5.23,0,0,1,2.94,5.48A4.45,4.45,0,0,1,12.93,77l-.54.13,0,.08.11,0a3.57,3.57,0,0,0,1.69.61,6.4,6.4,0,0,0,3-.36,6.42,6.42,0,0,0,2.91-2,5.22,5.22,0,0,0,1-2.55,13.21,13.21,0,0,0-.15-4.65c-.2-1-.45-2-.68-3s-.51-2.19-.76-3.28c0-.15-.1-.21-.27-.18-.53.09-1.07.18-1.61.23a14.7,14.7,0,0,1-7.65-1.26,16.55,16.55,0,0,1-7.7-7.23,17.06,17.06,0,0,1-2.15-7.1A1.38,1.38,0,0,0,0,46.15V44.4a1.4,1.4,0,0,0,.08-.34A16.27,16.27,0,0,1,.67,40.8a22.06,22.06,0,0,1,2.11-4.92,34.41,34.41,0,0,1,4.6-6.19c1.47-1.6,3-3.14,4.51-4.7A.45.45,0,0,0,12,24.5c-.17-.67-.36-1.33-.48-2-.22-1.26-.45-2.53-.6-3.8s-.22-2.41-.24-3.62a26.09,26.09,0,0,1,.63-5.77A19.58,19.58,0,0,1,13,4.57,9.54,9.54,0,0,1,16.77.38C17,.24,17.29.12,17.55,0ZM13.72,33.26l-.34.28A41.08,41.08,0,0,0,8.18,39a17.29,17.29,0,0,0-3.52,6.85A12,12,0,0,0,4.34,50a10.44,10.44,0,0,0,1.24,3.89,11.24,11.24,0,0,0,9.62,5.82,12.61,12.61,0,0,0,3.29-.39c.45-.09.44-.11.34-.6-.26-1.29-.53-2.59-.78-3.89s-.57-2.89-.86-4.34q-.51-2.61-1-5.22c-.06-.28-.06-.28-.32-.16a6.83,6.83,0,0,0-2.25,1.78,5.25,5.25,0,0,0-1.32,3,4.72,4.72,0,0,0,.43,2.31,4.83,4.83,0,0,0,2.81,2.84,1.45,1.45,0,0,1,.4.26.88.88,0,0,1,.22,1,1.16,1.16,0,0,1-1,.48,6.29,6.29,0,0,1-.74-.22,8.39,8.39,0,0,1-4.28-3.25A8,8,0,0,1,8.57,48.5,10.72,10.72,0,0,1,11,41.88,9.69,9.69,0,0,1,14.6,39c.15-.07.23-.15.19-.33s-.09-.48-.14-.71l-.6-3.11C14,34.35,13.84,33.84,13.72,33.26ZM14.14,23l.46-.39a20,20,0,0,0,3-3.87,17.58,17.58,0,0,0,2.61-6.29A7.81,7.81,0,0,0,20.1,9a1.34,1.34,0,0,0-1.09-1,2.32,2.32,0,0,0-1.88.52,5.62,5.62,0,0,0-1.57,2,20.76,20.76,0,0,0-2,8,13.3,13.3,0,0,0,.37,3.56C14,22.38,14.05,22.66,14.14,23Zm4.39,21.64,2.79,13.73a1.24,1.24,0,0,0,.15,0,5.94,5.94,0,0,0,2.47-2.42,7.32,7.32,0,0,0,.86-2.6,10.53,10.53,0,0,0,.12-2.1,7,7,0,0,0-.83-2.78,6.57,6.57,0,0,0-4.58-3.63C19.21,44.72,18.9,44.7,18.53,44.64Z"/></g></g></svg>