<svg xmlns="http://www.w3.org/2000/svg" viewBox="0 0 39.1 39.1"><defs><style>.cls-1{fill:#020202;}</style></defs><g id="Layer_2" data-name="Layer 2"><g id="Layer_1-2" data-name="Layer 1"><path class="cls-1" d="M19.73,10.47,22.22,13,35.08.1H24.93L19.64,5.39,14.26,0H4c.33-.33,8.8,8.56,13.07,13.09Z"/><path class="cls-1" d="M19.37,28.63l-2.49-2.49L4,39H14.17l5.29-5.29,5.38,5.38H35.08c-.33.33-8.8-8.56-13.07-13.09Z"/><path class="cls-1" d="M10.47,19.37,13,16.88.1,4V14.17l5.29,5.29L0,24.84V35.08C-.32,34.75,8.57,26.28,13.1,22Z"/><path class="cls-1" d="M28.63,19.73l-2.49,2.49L39,35.08V24.93l-5.29-5.29,5.38-5.38V4c.33.33-8.56,8.8-13.09,13.07Z"/><circle class="cls-1" cx="19.64" cy="19.66" r="4.5"/></g></g></svg>